<svg width="48" height="60" viewBox="0 0 48 60" fill="none" xmlns="http://www.w3.org/2000/svg">
<path d="M6 4C6 4.553 6.448 5 7 5C7.552 5 8 4.553 8 4C8 1.794 6.206 0 4 0C1.794 0 0 1.794 0 4C0 4.553 0.448 5 1 5C1.552 5 2 4.553 2 4C2 2.897 2.897 2 4 2C5.103 2 6 2.897 6 4Z" transform="translate(12 18)" fill="black"/>
<path d="M4 0C1.794 0 0 1.794 0 4C0 4.553 0.448 5 1 5C1.552 5 2 4.553 2 4C2 2.897 2.897 2 4 2C5.103 2 6 2.897 6 4C6 4.553 6.448 5 7 5C7.552 5 8 4.553 8 4C8 1.794 6.206 0 4 0Z" transform="translate(28 18)" fill="black"/>
<path d="M47 14V0H1V14H0V60H48V14H47ZM44.5 14L39.32 7.094L44.414 2H45V14H44.5ZM11 14V7C11 6.976 10.988 6.954 10.986 6.93C10.981 6.866 10.966 6.806 10.95 6.743C10.939 6.701 10.94 6.658 10.923 6.618C10.914 6.596 10.896 6.579 10.886 6.557C10.859 6.502 10.821 6.455 10.783 6.405C10.755 6.369 10.739 6.324 10.706 6.292L6.414 2H41.586L37.294 6.292C37.262 6.324 37.245 6.369 37.217 6.405C37.179 6.455 37.142 6.502 37.115 6.557C37.104 6.579 37.087 6.595 37.077 6.618C37.06 6.658 37.061 6.702 37.05 6.743C37.033 6.806 37.018 6.865 37.014 6.93C37.012 6.954 37 6.976 37 7V14H11ZM6 14L9 9.999V14H6ZM39 9.999L42 14H39V9.999ZM3 2H3.586L8.68 7.094L3.5 14H3V2ZM46 58H2V16H46V58Z" fill="black"/>
<path d="M17 0C16.448 0 16 0.447 16 1V7C16 10.859 12.86 14 9 14C5.14 14 2 10.859 2 7V1C2 0.447 1.552 0 1 0C0.448 0 0 0.447 0 1V7C0 11.963 4.038 16 9 16C13.962 16 18 11.963 18 7V1C18 0.447 17.552 0 17 0Z" transform="translate(15 21)" fill="black"/>
</svg>
