<svg width="38" height="42" viewBox="0 0 38 42" fill="none" xmlns="http://www.w3.org/2000/svg">
<path d="M7.73784 8.32872C13.8739 2.7197 23.0568 2.63394 29.2777 7.7541L24.3468 7.94278C23.7102 7.96851 23.218 8.50025 23.2435 9.14349C23.2689 9.76957 23.7781 10.2584 24.3892 10.2584C24.4062 10.2584 24.4147 10.2584 24.4316 10.2584L32.002 9.9754C32.6215 9.94968 33.1053 9.44366 33.1053 8.81758V8.73182C33.1053 8.71466 33.1053 8.70609 33.1053 8.68893V8.68036L32.8252 1.1159C32.7998 0.472661 32.2651 -0.0247747 31.637 0.000954724C31.0005 0.0266842 30.5083 0.558426 30.5337 1.20166L30.712 5.94446C27.6312 3.39724 23.8376 1.92209 19.7808 1.71625C14.7565 1.45896 9.92747 3.19998 6.2017 6.61342C1.07559 11.3048 -1.09706 18.4404 0.532431 25.233C0.659735 25.7647 1.12652 26.1163 1.64422 26.1163C1.73758 26.1163 1.82244 26.1078 1.9158 26.082C2.52686 25.9277 2.90877 25.3016 2.75601 24.6841C1.3302 18.7148 3.23128 12.4454 7.73784 8.32872Z" fill="black"/>
<path d="M32.6883 0.883113C32.5355 0.265606 31.916 -0.120336 31.3049 0.0340403C30.6939 0.188417 30.3119 0.814501 30.4647 1.43201C31.899 7.40124 29.9894 13.6706 25.4829 17.7874C22.3172 20.6776 18.3454 22.1013 14.3905 22.1013C10.6138 22.1013 6.84557 20.8063 3.80724 18.2505L8.79756 17.7959C9.42559 17.7359 9.89238 17.1784 9.83297 16.5352C9.77356 15.892 9.22191 15.4288 8.58539 15.4889L1.0405 16.175C0.412471 16.235 -0.0543101 16.7925 0.00509846 17.4357L0.684053 25.0602C0.734975 25.6606 1.2357 26.1151 1.8213 26.1151C1.85525 26.1151 1.8892 26.1151 1.92315 26.1066C2.55118 26.0465 3.01796 25.489 2.95855 24.8458L2.55118 20.2059C5.63194 22.7274 9.40862 24.194 13.4399 24.3998C13.7624 24.417 14.0849 24.4256 14.3989 24.4256C19.0752 24.4256 23.5224 22.6931 27.019 19.5027C32.1451 14.8113 34.3178 7.68427 32.6883 0.883113Z" transform="translate(4.7793 15.8848)" fill="black"/>
</svg>
